<svg width="104" height="80" viewBox="0 0 104 80" fill="none" xmlns="http://www.w3.org/2000/svg">
<g clip-path="url(#clip0_935_4281)" filter="url(#filter0_d_935_4281)">
<path d="M18.0292 62.4325C16.6905 62.7336 15.7306 62.6768 15.1495 62.2612C14.593 61.8383 14.194 61.2189 13.9523 60.4032C13.6814 59.4889 13.5161 58.3399 13.4564 56.9563C13.3968 55.5731 13.4103 54.0731 13.497 52.4559C13.5838 50.8392 13.7236 49.2197 13.9165 47.5972C13.652 47.705 13.2307 47.8744 12.6524 48.1052C12.0988 48.3282 11.5242 48.571 10.9285 48.8339C10.3502 49.0647 9.88672 49.2738 9.53812 49.4613C9.38521 48.6723 9.49354 47.9923 9.86315 47.4209C10.2502 46.8178 10.8097 46.2963 11.5417 45.8567C12.2984 45.4098 13.1425 45.0305 14.074 44.7189C14.189 42.743 14.3311 40.8128 14.5002 38.9281C14.6866 37.0114 14.917 35.2428 15.1913 33.6225C15.0358 33.6431 14.8592 33.6836 14.6615 33.744C14.4565 33.7797 14.1811 33.8504 13.8352 33.9561C12.3282 34.4168 11.2023 34.9361 10.4575 35.5141C9.73734 36.0846 9.30459 36.7155 9.1592 37.4069C9.0385 38.0907 9.10629 38.8651 9.36261 39.7303C9.54571 40.3481 9.77591 40.8978 10.0532 41.3791C10.3232 41.8357 10.6696 42.3228 11.0925 42.8405C9.87269 42.9974 8.93521 42.8799 8.27998 42.4871C7.61742 42.0696 7.16164 41.4406 6.91261 40.6005C6.5318 39.3151 6.66436 38.0347 7.31021 36.759C7.98083 35.4759 9.03482 34.3047 10.4723 33.2454C11.9344 32.1786 13.6784 31.3355 15.7043 30.7164C17.0137 30.3162 18.3488 30.0025 19.7095 29.7753C21.0701 29.5481 22.3187 29.2608 23.4552 28.9135C24.0728 28.7247 24.6548 28.5064 25.2011 28.2586C25.74 27.9861 26.3508 27.6376 27.0333 27.2134C26.2356 28.8858 25.5197 30.0615 24.8857 30.7405C24.2763 31.4119 23.6134 31.8571 22.8969 32.0761C22.304 32.2573 21.5161 32.4172 20.5333 32.5559C19.5433 32.6698 18.4937 32.8558 17.3847 33.1139C17.2978 34.003 17.223 35.0232 17.1599 36.1745C17.097 37.3259 17.0435 38.5552 16.9998 39.8625C16.9807 41.1622 16.9603 42.5026 16.9385 43.8839C18.2525 43.5901 19.4466 43.3465 20.5209 43.1528C21.5952 42.9591 22.7696 42.6947 24.0443 42.3591C23.865 42.8451 23.6514 43.2607 23.4034 43.6063C23.1729 43.9191 22.8128 44.2044 22.3233 44.4619C21.8585 44.7116 21.1887 44.9973 20.3139 45.3186C19.4639 45.6325 18.3383 46.0167 16.9375 46.4718C16.9595 47.274 16.9729 48.0916 16.9775 48.9259C16.9822 49.7602 16.9787 50.4754 16.9668 51.0723C16.9797 51.6611 16.9797 52.0253 16.967 52.1637C16.9782 54.7481 17.0714 56.8353 17.2463 58.4262C17.4387 59.9845 17.6997 61.3202 18.0292 62.4325ZM29.6961 56.6428C28.5844 56.9826 27.7086 56.8457 27.0689 56.2326C26.4613 55.6369 26.0292 54.9062 25.7729 54.0414C25.5386 53.2504 25.4241 52.4091 25.4295 51.518C25.4275 50.6022 25.5304 49.7215 25.738 48.8764C25.9703 48.024 26.2837 47.308 26.678 46.7292C27.0897 46.1184 27.5673 45.7299 28.1108 45.5637C28.2838 45.5107 28.4924 45.4875 28.7367 45.4937C28.9984 45.4678 29.197 45.5014 29.3325 45.5946C29.1458 46.0562 28.9725 46.6075 28.8124 47.2496C28.6771 47.884 28.5651 48.5517 28.4764 49.2526C28.4051 49.9214 28.3869 50.5871 28.4217 51.2505C28.4566 51.9135 28.5509 52.5046 28.7047 53.0238C28.8511 53.5183 29.0585 53.8995 29.3266 54.1682C29.6195 54.4291 30.0006 54.4875 30.47 54.3441C30.9394 54.2006 31.4184 53.7711 31.907 53.0559C32.4129 52.3082 32.8598 51.4979 33.2477 50.6246C32.2447 50.1495 31.4458 49.5445 30.8509 48.8099C30.2487 48.0506 29.7682 47.0652 29.4094 45.854C29.2556 45.3352 29.2033 44.7042 29.2527 43.9612C29.3267 43.2108 29.5746 42.5018 29.9963 41.8338C30.4428 41.158 31.1602 40.6693 32.1484 40.3674C33.2108 40.0427 34.0398 40.1126 34.6356 40.5777C35.256 41.0347 35.6871 41.6714 35.9288 42.4867C36.1997 43.4014 36.2566 44.5028 36.0994 45.7906C35.9669 47.071 35.7172 48.3197 35.3504 49.5371C35.6908 49.5947 36.0587 49.5634 36.454 49.4424C36.8245 49.3291 37.2436 49.1068 37.7112 48.7751C38.1787 48.4434 38.601 48.0046 38.9779 47.458C39.3477 46.887 39.5779 46.21 39.6694 45.4272L40.4794 45.7055C40.3093 47.1321 39.855 48.2814 39.1166 49.1544C38.3958 49.9945 37.603 50.5469 36.7383 50.811C36.4171 50.9091 36.0886 50.9826 35.7528 51.0313C35.4096 51.0553 35.0875 51.0595 34.7864 51.0437C34.2394 52.2893 33.5322 53.4487 32.6648 54.5223C31.7975 55.5963 30.8079 56.303 29.6961 56.6428ZM33.8597 49.1436C34.1963 48.0974 34.4282 47.0157 34.5552 45.8988C34.6823 44.7816 34.6213 43.8031 34.3723 42.9626C34.2039 42.3943 33.9966 42.0128 33.7504 41.8183C33.4969 41.5995 33.1972 41.5427 32.8513 41.6486C32.3819 41.792 31.999 42.2729 31.7026 43.0914C31.4063 43.9094 31.4082 44.8256 31.7084 45.8389C31.8622 46.3577 32.1354 46.9616 32.5281 47.6505C32.9454 48.3313 33.3893 48.8292 33.8597 49.1436ZM43.4845 52.4285C42.3728 52.7683 41.4973 52.6314 40.8573 52.0187C40.2496 51.4225 39.8178 50.6919 39.5616 49.8271C39.3271 49.0361 39.2128 48.1948 39.2178 47.3037C39.2159 46.3879 39.319 45.5076 39.5263 44.6625C39.7589 43.8097 40.0721 43.0941 40.4666 42.5153C40.8783 41.9041 41.3558 41.5156 41.8992 41.3494C42.0725 41.2968 42.281 41.2732 42.5252 41.2794C42.7868 41.2535 42.9856 41.2871 43.1209 41.3803C42.9345 41.8419 42.7608 42.3936 42.6007 43.0353C42.4655 43.6697 42.3535 44.3374 42.2647 45.0383C42.1938 45.7071 42.1756 46.3728 42.2101 47.0362C42.2449 47.6996 42.3395 48.2907 42.493 48.8095C42.6395 49.304 42.8469 49.6852 43.1151 49.9539C43.4081 50.2148 43.7891 50.2736 44.2585 50.1298C44.7279 49.9863 45.207 49.5572 45.6953 48.8416C46.2015 48.0939 46.6484 47.2836 47.036 46.4103C46.0333 45.9352 45.2345 45.3301 44.6395 44.5956C44.0372 43.8363 43.5566 42.8509 43.198 41.6401C43.0442 41.1209 42.9918 40.4899 43.0411 39.7469C43.1151 38.9965 43.3632 38.2875 43.7849 37.6195C44.2314 36.9439 44.9488 36.4551 45.9368 36.1531C46.9992 35.8284 47.8283 35.8984 48.424 36.3633C49.0445 36.8205 49.4756 37.457 49.7174 38.2726C49.9883 39.1871 50.0453 40.2885 49.888 41.5763C49.7554 42.8567 49.5058 44.1058 49.1387 45.3228C49.4794 45.3804 49.8473 45.3491 50.2426 45.2281C50.6132 45.1148 51.0321 44.8925 51.4996 44.5608C51.9674 44.2295 52.3895 43.7903 52.7663 43.2437C53.136 42.6727 53.3666 41.9957 53.4581 41.2129L54.2678 41.4912C54.0976 42.9178 53.6438 44.0675 52.9054 44.9401C52.1845 45.7802 51.3914 46.3326 50.5267 46.597C50.2054 46.6948 49.8771 46.7683 49.5415 46.817C49.198 46.8414 48.8759 46.8452 48.5748 46.8294C48.0279 48.075 47.3205 49.2344 46.4535 50.3084C45.586 51.382 44.5965 52.0887 43.4845 52.4285ZM47.648 44.9293C47.9849 43.8831 48.2166 42.8014 48.3438 41.6845C48.4709 40.5673 48.4097 39.5888 48.1608 38.7483C47.9922 38.1799 47.7852 37.7985 47.5387 37.6042C47.2852 37.3852 46.9856 37.3285 46.6399 37.4342C46.1705 37.5777 45.7876 38.0586 45.4911 38.8771C45.1949 39.6955 45.1969 40.6113 45.4969 41.6246C45.6508 42.1434 45.924 42.7473 46.3166 43.4362C46.7341 44.117 47.1779 44.6149 47.648 44.9293ZM57.3624 48.1059C56.893 48.2497 56.3744 48.2733 55.8073 48.1771C55.2721 48.0982 54.7705 47.8604 54.3027 47.4646C53.8104 47.0756 53.4508 46.4984 53.2236 45.7322C52.9821 44.9165 52.9085 43.9415 53.0039 42.8072C53.0988 41.6733 53.3298 40.4977 53.6965 39.2803C54.088 38.0555 54.6039 36.887 55.2442 35.7748C55.9093 34.655 56.6717 33.6808 57.5306 32.8522C58.3899 32.0236 59.3384 31.4507 60.3759 31.1335C60.9442 30.9598 61.4182 30.9228 61.798 31.0224C62.1705 31.0972 62.419 31.3447 62.5434 31.7649C62.5798 31.8885 62.5992 32.0444 62.6011 32.2324C62.5957 32.3959 62.5124 32.5696 62.3511 32.7535C62.2085 32.6355 62.0062 32.5894 61.7445 32.6155C61.4756 32.6169 61.205 32.6591 60.9333 32.7422C60.1182 32.9913 59.4093 33.464 58.8073 34.1601C58.198 34.8316 57.6907 35.62 57.2856 36.5256C56.8802 37.4311 56.5674 38.3758 56.3469 39.3595C56.1511 40.3361 56.0469 41.2573 56.0345 42.1237C56.0143 42.9653 56.0883 43.6705 56.257 44.2392C56.3961 44.7085 56.6085 45.0615 56.8938 45.2977C57.1721 45.5091 57.5089 45.5544 57.9042 45.4338C58.5713 45.23 59.2484 44.6053 59.9352 43.5595C60.6399 42.4817 61.2577 41.0664 61.7891 39.3135C62.338 37.5286 62.7039 35.4895 62.8868 33.1964C63.0128 31.6215 63.1562 30.0142 63.317 28.3747C63.4705 26.7105 63.6426 25.1081 63.8325 23.5675C64.0228 22.0269 64.2446 20.6383 64.4977 19.4018C64.776 18.1578 65.0825 17.1475 65.4186 16.3711C65.7717 15.5623 66.1705 15.09 66.6151 14.9541C66.8868 14.871 67.1546 14.9105 67.4182 15.0725C67.6992 15.2023 67.8872 15.4278 67.9825 15.7491C68.107 16.1693 68.0984 16.9132 67.9566 17.9808C67.8321 19.0161 67.6395 20.2746 67.3779 21.7562C67.1411 23.2302 66.8752 24.8343 66.581 26.5686C66.3039 28.2705 66.0787 30.0106 65.905 31.7887C65.7484 33.5347 65.6876 35.238 65.7217 36.8988C65.7728 38.5273 65.9965 40.009 66.3918 41.3436C66.5678 41.9366 66.738 42.3294 66.9027 42.5219C67.0849 42.6816 67.3116 42.7202 67.5833 42.6371C68.1271 42.4709 68.6701 42.0758 69.2128 41.4518C69.755 40.8278 70.2515 40.0021 70.7015 38.9753C71.1442 37.9234 71.4779 36.7298 71.7019 35.3945L72.5818 35.7725C72.4411 37.298 72.1042 38.7081 71.5721 40.0028C71.0395 41.2979 70.3759 42.3765 69.5806 43.2398C68.793 44.1274 67.9294 44.7147 66.9907 45.0015C65.9779 45.3112 65.1787 45.2049 64.593 44.6834C64.007 44.1615 63.586 43.4679 63.3298 42.6031C63.2128 42.2076 63.1201 41.8044 63.0523 41.3938C63.0019 40.9512 62.9554 40.5205 62.9124 40.1026C62.4759 41.4487 61.9573 42.699 61.3562 43.853C60.7725 44.9749 60.1461 45.9077 59.4775 46.6512C58.8085 47.3946 58.1035 47.8798 57.3624 48.1059ZM75.9736 42.4179C74.8868 42.75 73.9763 42.6781 73.2422 42.2014C72.5081 41.7247 72.0058 41.0292 71.7349 40.1149C71.5663 39.5463 71.4527 38.7994 71.3942 37.874C71.3356 36.9485 71.3399 35.9633 71.4077 34.9183C71.4926 33.8412 71.6453 32.8106 71.8655 31.8268C72.086 30.843 72.3911 30.0085 72.781 29.3233C73.1632 28.6134 73.6263 28.1754 74.1697 28.0093C74.4663 27.9187 74.755 27.9383 75.036 28.068C75.3097 28.1731 75.4977 28.3987 75.6 28.7447C75.6953 29.066 75.6403 29.6084 75.4356 30.3718C75.2554 31.1277 75.0306 32.0051 74.7604 33.0041C74.5155 33.9954 74.3306 35.0088 74.2066 36.0441C74.0996 37.0471 74.167 37.9565 74.4085 38.7723C74.643 39.5629 74.9364 40.0531 75.2884 40.2417C75.6581 40.3983 76.1147 40.3937 76.6585 40.2274C77.4984 39.9707 78.288 39.271 79.0271 38.1287C79.7666 36.9863 80.3562 35.2023 80.7957 32.7767L81.5275 33.2C81.3073 35.6393 80.7097 37.6684 79.7345 39.2872C78.7589 40.9063 77.5054 41.9497 75.9736 42.4179ZM75.3922 24.3607C74.9228 24.5041 74.4577 24.525 73.9965 24.4234C73.5527 24.2895 73.2573 23.9754 73.1108 23.4811C72.9352 22.8879 73.1062 22.283 73.624 21.6665C74.1418 21.05 74.7469 20.6361 75.4383 20.4246C75.8833 20.2887 76.2829 20.2743 76.6384 20.3814C77.0178 20.481 77.2849 20.7903 77.4384 21.3094C77.5922 21.8284 77.4585 22.4219 77.0364 23.0899C76.6073 23.7332 76.0593 24.1568 75.3922 24.3607ZM86.5093 39.7639C84.9279 40.2472 83.5771 40.1884 82.4558 39.5876C81.367 39.0039 80.6321 38.0695 80.2511 36.7842C79.929 35.6967 79.8601 34.4644 80.0449 33.0871C80.2469 31.6776 80.6601 30.298 81.2837 28.9483C81.9004 27.5738 82.6779 26.3792 83.6166 25.3646C84.5554 24.3499 85.593 23.6689 86.7294 23.3215C87.3721 23.1252 88.0287 23.1132 88.6992 23.2856C89.3876 23.4257 89.8779 23.99 90.1709 24.9787C90.4492 25.9179 90.4376 26.8784 90.1356 27.8601C89.8337 28.8419 89.3209 29.7938 88.5973 30.7158C87.8736 31.6378 87.0182 32.4788 86.0306 33.2388C85.0608 33.9665 84.0384 34.562 82.9632 35.0254C82.9678 35.1319 82.9759 35.2506 82.988 35.3817C83.0174 35.4806 83.0686 35.6536 83.1418 35.9008C83.1783 36.0244 83.2566 36.2431 83.3767 36.5568C83.5139 36.8383 83.7201 37.1257 83.9957 37.4188C84.2713 37.712 84.643 37.9217 85.1116 38.0481C85.5802 38.1745 86.1604 38.1319 86.8523 37.9205C87.8899 37.6033 88.8434 37.0019 89.7124 36.1163C90.5992 35.1984 91.3566 34.1178 91.9853 32.8745C92.6384 31.6236 93.098 30.3106 93.3639 28.9355L94.281 29.3021C94.0535 30.989 93.5732 32.5509 92.8403 33.9878C92.1321 35.4172 91.2275 36.6371 90.1259 37.6477C89.0488 38.6507 87.8434 39.3561 86.5093 39.7639ZM82.9643 33.5291C83.5849 33.2586 84.2353 32.8172 84.9163 32.2048C85.5969 31.5924 86.2112 30.8925 86.7593 30.105C87.3322 29.31 87.7542 28.5071 88.0259 27.6963C88.2903 26.8608 88.3197 26.097 88.1147 25.4049C88.0341 25.133 87.9298 24.9628 87.8019 24.8941C87.6736 24.8255 87.4984 24.8251 87.2759 24.8931C86.7077 25.0667 86.1771 25.458 85.6841 26.067C85.1837 26.6512 84.7356 27.3677 84.3407 28.2162C83.938 29.0401 83.6194 29.9192 83.3841 30.8536C83.1492 31.788 83.0093 32.6798 82.9643 33.5291Z" fill="black"/>
<path d="M11.8035 69.5969C82.8597 54.0936 99.557 42.4775 99.024 38.6074" stroke="black" stroke-width="3"/>
</g>
<defs>
<filter id="filter0_d_935_4281" x="-4" y="0" width="108" height="83" filterUnits="userSpaceOnUse" color-interpolation-filters="sRGB">
<feFlood flood-opacity="0" result="BackgroundImageFix"/>
<feColorMatrix in="SourceAlpha" type="matrix" values="0 0 0 0 0 0 0 0 0 0 0 0 0 0 0 0 0 0 127 0" result="hardAlpha"/>
<feOffset dy="4"/>
<feGaussianBlur stdDeviation="2"/>
<feComposite in2="hardAlpha" operator="out"/>
<feColorMatrix type="matrix" values="0 0 0 0 0 0 0 0 0 0 0 0 0 0 0 0 0 0 0.25 0"/>
<feBlend mode="normal" in2="BackgroundImageFix" result="effect1_dropShadow_935_4281"/>
<feBlend mode="normal" in="SourceGraphic" in2="effect1_dropShadow_935_4281" result="shape"/>
</filter>
<clipPath id="clip0_935_4281">
<rect width="100" height="75" fill="white"/>
</clipPath>
</defs>
</svg>
